<svg xmlns="http://www.w3.org/2000/svg" viewBox="0 0 100 100">
  <circle cx="50" cy="50" r="48" fill="white" stroke="#222" stroke-width="2"/>
  <polygon points="50,28 63,38 58,53 42,53 37,38" fill="#111"/>
  <polygon points="72,22 84,33 80,48 66,45 63,30" fill="#111"/>
  <polygon points="28,22 37,30 34,45 20,48 16,33" fill="#111"/>
  <polygon points="78,60 85,75 72,84 60,76 62,60" fill="#111"/>
  <polygon points="22,60 38,60 40,76 28,84 15,75" fill="#111"/>
  <polygon points="50,72 62,80 56,95 44,95 38,80" fill="#111"/>
</svg>
